<?xml version="1.0" encoding="utf-8"?>
<!-- Generator: Adobe Illustrator 16.1.1, SVG Export Plug-In . SVG Version: 6.00 Build 0)  -->
<!DOCTYPE svg PUBLIC "-//W3C//DTD SVG 1.1//EN" "http://www.w3.org/Graphics/SVG/1.1/DTD/svg11.dtd">
<svg version="1.1" id="Layer_1" xmlns="http://www.w3.org/2000/svg" xmlns:xlink="http://www.w3.org/1999/xlink" x="0px" y="0px"
	 width="112.889px" height="69.484px" viewBox="0 0 112.889 69.484" enable-background="new 0 0 112.889 69.484"
	 xml:space="preserve">
<path fill="#FFFFFF" d="M93.49,69.484c10.713,0,19.398-8.775,19.398-19.487c0-10.702-8.668-19.426-19.366-19.443
	c0.035-0.579,0.059-1.183,0.059-1.77C93.581,12.893,80.698,0,64.807,0c-12.575,0-23.26,8.066-27.173,19.309
	c-2.287-3.228-6.044-5.344-10.301-5.344c-6.974,0-12.625,5.651-12.625,12.624c0,1.178,0.174,2.313,0.476,3.395
	C6.468,32.12,0,40.071,0,49.445c0,11.018,8.932,20.039,19.95,20.039H93.49z"/>
</svg>
