<?xml version="1.0" encoding="utf-8"?>
<!-- Generator: Adobe Illustrator 16.1.1, SVG Export Plug-In . SVG Version: 6.00 Build 0)  -->
<!DOCTYPE svg PUBLIC "-//W3C//DTD SVG 1.1//EN" "http://www.w3.org/Graphics/SVG/1.1/DTD/svg11.dtd">
<svg version="1.1" id="Layer_1" xmlns="http://www.w3.org/2000/svg" xmlns:xlink="http://www.w3.org/1999/xlink" x="0px" y="0px"
	 width="260px" height="92px" viewBox="0 0 260 92" enable-background="new 0 0 260 92" xml:space="preserve">
<path fill="#FFFFFF" d="M256.27,64H260v-4h-4v-3.781v-4V48h-4v-4h-4v4h-4v-4h-4v-3.781V36h-4v-4h-3.73H228v-4h-4v-3.781v-4V16h-4v-4
	h-4v4h-4v-4h-4V8.219V4h-4V0h-3.73h-4h-4H188v4h-4v4h-3.73H176v4.219v4V20h-4v4h-4v4h-4v4h-4v-4h-4v-3.781v-4V16h-4v-4h-4v4h-4v-4
	h-4V8.219V4h-4V0h-3.73h-4h-4H120v4h-4v4h-3.73H108v4.219v4V20h-4v4h-4v4h-4v4h-4v-4h-4v-3.781v-4V16h-4v-4h-4v4h-4v-4h-4V8.219V4
	h-4V0h-3.73h-4h-4H52v4h-4v4h-3.73H40v4.219v4V20h-4v4h-4v4h-4v4h-3.73h-4H16v4h-4v4H8v4.219V48H4.27H0v4.219v4V60h4v4h4v4h4v4h4
	v4.219V80h4.27h4H28v4h4v4h4.27H40v4h4.27h4H52v-4h4v-4h4v4h4.27H68v4h4.27h4h4h4H88v-4h4.27H96v-4h4v4h4.27H108v4h4.27h4H120v-4h4
	v-4h4v4h4.27H136v4h4.27h4h4h4H156v-4h4.27H164v-4h4v4h4.27H176v4h4.27h4H188v-4h4v-4h4v4h4.27H204v4h4.27h4h4h4H224v-4h4.27H232v-4
	h4v4h4.27H244v-4h4.27H252v-4h4.27H260v-3.781V72h-4v-4h-4v-4H256.27z M44,24h4v-4h4.27H56v4h-3.73H48v4h-4V24z M72,20v4h-4v-4h-4
	v-4h4v4H72z M112,24h4v-4h4.27H124v4h-3.73H116v4h-4V24z M140,20v4h-4v-4h-4v-4h4v4H140z M180,24h4v-4h4.27H192v4h-3.73H184v4h-4V24
	z M208,20v4h-4v-4h-4v-4h4v4H208z M240,60v-4h-4v-4h4v4h4v4H240z M56.27,80H52v4h-3.73H44v-4h-3.73H36v-4h-3.73h-4H24v-4h-4v-4h-4
	v-4h4v4h4v4h4.27H32v-4h4v4h4v4h4.27h4H52v-4h4.27h4H64v-4h4v-4h4v4h-4v4h4v4h4.27h4h4H88v-4h4v4h-4v4h-4v4h-3.73h-4H72v-4h-4v-4
	h-3.73H60v4H56.27z M124.27,80H120v4h-3.73H112v-4h-3.73H104v-4h-3.73H96v-4h4v-4h4v4h4v4h4.27h4H120v-4h4.27h4H132v-4h4v-4h4v4h-4
	v4h4v4h4.27h4h4H156v-4h4v4h-4v4h-4v4h-3.73h-4H140v-4h-4v-4h-3.73H128v4H124.27z M192.27,80H188v4h-3.73H180v-4h-3.73H172v-4h-3.73
	H164v-4h4v-4h4v4h4v4h4.27h4H188v-4h4.27h4H200v-4h4v-4h4v4h-4v4h4v4h4.27h4h4H224v-4h4v4h-4v4h-4v4h-3.73h-4H208v-4h-4v-4h-3.73
	H196v4H192.27z"/>
</svg>
