<?xml version="1.0" encoding="utf-8"?>
<!-- Generator: Adobe Illustrator 16.1.1, SVG Export Plug-In . SVG Version: 6.00 Build 0)  -->
<!DOCTYPE svg PUBLIC "-//W3C//DTD SVG 1.1//EN" "http://www.w3.org/Graphics/SVG/1.1/DTD/svg11.dtd">
<svg version="1.1" id="Layer_1" xmlns="http://www.w3.org/2000/svg" xmlns:xlink="http://www.w3.org/1999/xlink" x="0px" y="0px"
	 width="124px" height="92px" viewBox="0 0 124 92" enable-background="new 0 0 124 92" xml:space="preserve">
<path fill="#FFFFFF" d="M119.757,64H124v-4h-4v-3.781v-4V48h-4v-4h-4v4h-4v-4h-4v-3.781V36h-4v-4h-4.243H92v-4h-4v-3.781v-4V16h-4
	v-4h-4v4h-4v-4h-4V8.219V4h-4V0h-4.243h-4h-4H52v4h-4v4h-4.243H40v4.219v4V20h-4v4h-4v4h-4v4h-4.243h-4H16v4h-4v4H8v4.219V48H3.757
	H0v4.219v4V60h4v4h4v4h4v4h4v4.219V80h3.757h4H28v4h4v4h3.757H40v4h3.757h4H52v-4h4v-4h4v4h3.757H68v4h3.757h4h4h4H88v-4h3.757H96
	v-4h4v4h3.757H108v-4h3.757H116v-4h3.757H124v-3.781V72h-4v-4h-4v-4H119.757z M44,24h4v-4h3.757H56v4h-4.243H48v4h-4V24z M72,20v4
	h-4v-4h-4v-4h4v4H72z M104,60v-4h-4v-4h4v4h4v4H104z M55.757,80H52v4h-4.243H44v-4h-4.243H36v-4h-4.243h-4H24v-4h-4v-4h-4v-4h4v4h4
	v4h3.757H32v-4h4v4h4v4h3.757h4H52v-4h3.757h4H64v-4h4v-4h4v4h-4v4h4v4h3.757h4h4H88v-4h4v4h-4v4h-4v4h-4.243h-4H72v-4h-4v-4h-4.243
	H60v4H55.757z"/>
</svg>
