<?xml version="1.0" encoding="utf-8"?>
<!-- Generator: Adobe Illustrator 16.1.1, SVG Export Plug-In . SVG Version: 6.00 Build 0)  -->
<!DOCTYPE svg PUBLIC "-//W3C//DTD SVG 1.1//EN" "http://www.w3.org/Graphics/SVG/1.1/DTD/svg11.dtd">
<svg version="1.1" id="Layer_1" xmlns="http://www.w3.org/2000/svg" xmlns:xlink="http://www.w3.org/1999/xlink" x="0px" y="0px"
	 width="125.216px" height="64.646px" viewBox="0 0 125.216 64.646" enable-background="new 0 0 125.216 64.646"
	 xml:space="preserve">
<path fill="#FFFFFF" d="M105.166,9.517c0,0-25,2-28.5,5s-11,8.5-11,8.5s6.5-12.5,4-13.5s-34.5-12-40-9s-32,27.5-29.5,32.5
	s18.5,12.5,20.5,12.5s22.5-14,23-9.5s-19,14.5-9.5,21.5s25,8.5,30.5,6s23.5-18,26.5-18s14,7.5,16.5,4.5s16.5-15.5,17.5-22.5
	s-13.5-15.5-13.5-15.5"/>
</svg>
