<?xml version="1.0" encoding="utf-8"?>
<!-- Generator: Adobe Illustrator 16.1.1, SVG Export Plug-In . SVG Version: 6.00 Build 0)  -->
<!DOCTYPE svg PUBLIC "-//W3C//DTD SVG 1.1//EN" "http://www.w3.org/Graphics/SVG/1.1/DTD/svg11.dtd">
<svg version="1.1" id="Layer_1" xmlns="http://www.w3.org/2000/svg" xmlns:xlink="http://www.w3.org/1999/xlink" x="0px" y="0px"
	 width="103.291px" height="76.2px" viewBox="0 0 103.291 76.2" enable-background="new 0 0 103.291 76.2" xml:space="preserve">
<path fill="#FFFFFF" d="M32.768,21.442c-3.433,4.292-5.495-9.159-10.074-7.327C18.114,15.947,1.628,24.19,0.712,31.517
	c-0.916,7.328-2.748,30.224,8.243,30.224c10.99,0,20.149-15.57,23.813-9.159c3.664,6.411-1.832,16.485,6.411,20.149
	c8.243,3.664,21.981,5.495,28.393,0s7.327-21.98,10.074-22.896c2.748-0.916,1.832,10.99,5.495,10.074
	c3.664-0.916,20.149-7.766,20.149-14.873s-3.663-15.351-5.495-18.099c-1.832-2.748-11.906-8.243-11.906-8.243
	s-10.99,8.243-11.906,4.58c-0.916-3.664-2.748-21.065-8.243-21.981C60.245,0.377,54.75-6.034,32.768,21.442z"/>
</svg>
