<?xml version="1.0" encoding="utf-8"?>
<!-- Generator: Adobe Illustrator 16.1.1, SVG Export Plug-In . SVG Version: 6.00 Build 0)  -->
<!DOCTYPE svg PUBLIC "-//W3C//DTD SVG 1.1//EN" "http://www.w3.org/Graphics/SVG/1.1/DTD/svg11.dtd">
<svg version="1.1" id="Layer_1" xmlns="http://www.w3.org/2000/svg" xmlns:xlink="http://www.w3.org/1999/xlink" x="0px" y="0px"
	 width="139.868px" height="29.761px" viewBox="0 0 139.868 29.761" enable-background="new 0 0 139.868 29.761"
	 xml:space="preserve">
<path fill="#FFFFFF" d="M0.104,22.226c0,0,9.5,4,20.75,2.75c0,0,12,4.484,27.75,0.242c0,0,5,4.508,14.5,4.508s18.25-3.75,18.25-3.75
	s16,3.5,30.5,3.75s27.5-1,28-3.75s-13-7-17.25-3.75c0,0-5.25-4.345-8.75-1.172c0,0-3.25-8.328-11.75-9.328s-15.25,5.75-15.25,5.75
	s-4.5-4.25-9.5-1.25c0,0-7.5-14.75-18.25-16s-19.5,2.75-23.75,10.25c0,0-7.484-2.945-11.492,4.402c0,0-7.508-1.652-10.008,2.098
	C13.854,16.976-1.396,15.976,0.104,22.226z"/>
<path fill="#CADCE8" d="M139.854,25.976c0,1.375-2.75,4.125-28,3.75c-14.5-0.215-30.5-3.75-30.5-3.75s-8.75,3.75-18.25,3.75
	s-14.5-4.508-14.5-4.508c-15.75,4.242-27.75-0.242-27.75-0.242c-11.25,1.25-20.75-2.75-20.75-2.75c-1-4.25,17.333-2.25,20.833-1.25
	c0,0,18.333-3,27.333,0.834c0,0,16.833-3.167,31.5,0.5c0,0,9.499-2.167,21.833-0.667s14.334,3.333,14.334,3.333
	S139.854,22.101,139.854,25.976z"/>
</svg>
