<?xml version="1.0" encoding="utf-8"?>
<!-- Generator: Adobe Illustrator 16.1.1, SVG Export Plug-In . SVG Version: 6.00 Build 0)  -->
<!DOCTYPE svg PUBLIC "-//W3C//DTD SVG 1.1//EN" "http://www.w3.org/Graphics/SVG/1.1/DTD/svg11.dtd">
<svg version="1.1" id="Layer_1" xmlns="http://www.w3.org/2000/svg" xmlns:xlink="http://www.w3.org/1999/xlink" x="0px" y="0px"
	 width="221.428px" height="49.102px" viewBox="0 0 221.428 49.102" enable-background="new 0 0 221.428 49.102"
	 xml:space="preserve">
<path fill="#FFFFFF" d="M0.277,34.364c-2-2.25,7.25-8,14.5-7.25s8.75,2.5,8.75,2.5s5.25-8.25,12.75-9s12,2,12,2
	s8.75-13.5,23.75-13.5s21.25,11.25,21.25,11.25s3.25-2.75,5.5-3c0,0,8-19,33.5-17.25s26.75,18.75,26.75,18.75s4.25,0,5.75,2.25
	s2.25,3.75,2.25,3.75s17.5-3,29.25,8c0,0,20.25-1.25,24.5,3c3.953,3.953-12.5,4-17.5,5c0,0-21.5,8.75-32,3.5
	c0,0-11.5,2.855-16,1.678c0,0-12.75,4.072-34.5,2.822s-30-2.5-31.75-4.75c0,0-26.25,3-32.5-4.75c0,0-33.5,1.25-37.75-2.75
	C18.777,36.614,2.277,36.614,0.277,34.364z"/>
<path fill="#CADCE8" d="M220.777,35.864c4.125,4.113-12.5,4-17.5,5c0,0-21.5,8.75-32,3.5c0,0-11.5,2.855-16,1.678
	c0,0-12.75,4.072-34.5,2.822s-30-2.5-31.75-4.75c0,0-26.25,3-32.5-4.75c0,0-33.5,1.25-37.75-2.75c0,0-19.365,0.633-18.5-2.25
	c0.75-2.5,22.5-1.75,22.5-1.75s23-3.711,28.5-0.105c0,0,26.25-1.395,30.75,1.605c0,0,14.346-3.862,27.298-3.182
	c12.952,0.682,30.952,7.932,30.952,7.932s9.5-2.5,14-0.75c0,0,11.25-4.75,20.5-2c0,0,20.25-0.25,26.75,0.5
	S210.527,34.864,220.777,35.864z"/>
</svg>
