<?xml version="1.0" encoding="utf-8"?>
<!-- Generator: Adobe Illustrator 16.1.1, SVG Export Plug-In . SVG Version: 6.00 Build 0)  -->
<!DOCTYPE svg PUBLIC "-//W3C//DTD SVG 1.1//EN" "http://www.w3.org/Graphics/SVG/1.1/DTD/svg11.dtd">
<svg version="1.1" id="Layer_1" xmlns="http://www.w3.org/2000/svg" xmlns:xlink="http://www.w3.org/1999/xlink" x="0px" y="0px"
	 width="104.822px" height="19.67px" viewBox="0 0 104.822 19.67" enable-background="new 0 0 104.822 19.67" xml:space="preserve">
<path fill="#FFFFFF" d="M36.338,9.119c0,0,6.333-10.333,18-9c11.667,1.333,13.333,9,13.333,9s3.334-1.667,5.334,0
	c0,0,7.321-5,14.994,2.333c0,0,18.672,0.333,16.672,3c-2,2.668-18,2-18,2s-30,6.371-48.667,1.186c0,0-16,1.148-22-1.852
	c0,0-16.333,0.666-16-2.334c0.333-3,10-3.616,10-3.616s5-3.284,9.667,0c0,0,3.333-2.383,8-2.383S36.338,9.119,36.338,9.119z"/>
<path fill="#CADCE8" d="M104.806,14.105c0.338,3.367-18.135,2.346-18.135,2.346s-30,6.371-48.667,1.186c0,0-16,1.148-22-1.852
	c0,0-16.333,0.666-16-2.334c0,0,8-1.333,15,0c0,0,13.833-2.166,22.5,0.668c0,0,11.167-1,19.667-0.5s22,1.332,22,1.332
	S104.81,12.973,104.806,14.105z"/>
</svg>
