<?xml version="1.0" encoding="utf-8"?>
<!-- Generator: Adobe Illustrator 16.1.1, SVG Export Plug-In . SVG Version: 6.00 Build 0)  -->
<!DOCTYPE svg PUBLIC "-//W3C//DTD SVG 1.1//EN" "http://www.w3.org/Graphics/SVG/1.1/DTD/svg11.dtd">
<svg version="1.1" id="Layer_1" xmlns="http://www.w3.org/2000/svg" xmlns:xlink="http://www.w3.org/1999/xlink" x="0px" y="0px"
	 width="172.973px" height="100.163px" viewBox="0 0 172.973 100.163" enable-background="new 0 0 172.973 100.163"
	 xml:space="preserve">
<g>
	<path fill="#FFFFFF" d="M43.506,83.002c0,0-42,1-43.5,12.5c-1.161,8.898,171.003,2.828,172.5,0c4.5-8.5-25-8-25-8s11-5,12-30.5
		s-26.5-18-26.5-18s-2.5-48-51-37.5s-19,55-19,55S38.506,54.002,43.506,83.002z"/>
	<path fill="#CADCE8" d="M121.756,52.002c-0.734-3.254-14-9.75-23.75,0s1.5,21,4.25,20s-3.5-7.249,1.75-11.499
		S123.506,59.752,121.756,52.002z"/>
	<path fill="#CADCE8" d="M112.506,12.002c3.013,1.244-11.222-10.921-25.167-8.832s-31.5,13.333-30.166,29
		c1.294,15.195,11.083,25.332,11.083,25.332s-16.29-0.03-20.417,10.834c-3.166,8.334,1.917,16.916,1.917,16.916s-46.25,1.75-46,8.25
		s45.5-4.25,47.75-2.75c0,0,2.25-31.088,29.25-31.294c0,0-5.5-17.456,7.5-23.206s24.254-0.25,24.254-0.25s-10.754-17.25-29.504-7
		s-13.5,23-13.5,23s-6.45-25.033,7-34C89.256,9.502,101.006,7.252,112.506,12.002z"/>
</g>
</svg>
